<svg id="Layer_1" enable-background="new 0 0 512 512" height="512" viewBox="0 0 512 512" width="512" xmlns="http://www.w3.org/2000/svg"><g><path d="m503.515 11.555c-.369-3.718-3.418-6.598-7.151-6.754-1.147-.048-116.099-4.801-240.364-4.801-33.071 0-68.419.335-105.063.995-4.143.075-7.44 3.493-7.365 7.634.074 4.096 3.417 7.365 7.498 7.365.045 0 .092 0 .138-.001 36.553-.659 71.81-.993 104.792-.993 107.002 0 207.081 3.532 233.172 4.529 2.784 32.255 14.053 180.05 3.205 346.919-26.777.996-129.347 4.53-236.377 4.53-107.019 0-209.598-3.534-236.377-4.53-10.847-166.868.422-314.665 3.205-346.92 13.586-.521 47.214-1.73 91.142-2.762 4.142-.098 7.421-3.533 7.323-7.674-.096-4.081-3.435-7.324-7.496-7.324-.06 0-.12.001-.179.002-57.607 1.353-97.585 3.014-97.982 3.03-3.733.156-6.782 3.035-7.151 6.753-.192 1.938-18.991 196.188-.006 405.14.34 3.744 3.4 6.657 7.157 6.814.19.008 19.358.807 49.997 1.739.078.003.155.004.233.004 4.037 0 7.37-3.209 7.494-7.271.126-4.141-3.129-7.599-7.27-7.725-20.062-.611-35.183-1.164-43.253-1.474-.796-9.131-1.521-18.231-2.179-27.284 29.164 1.073 130.108 4.481 235.341 4.481s206.178-3.408 235.341-4.481c-.658 9.052-1.382 18.151-2.179 27.283-26.104.998-126.161 4.531-233.161 4.531-47.79 0-99.409-.688-153.424-2.044-4.156-.059-7.584 3.169-7.688 7.31s3.169 7.582 7.311 7.687c34.151.857 67.349 1.447 99.234 1.767-23.625 46.925-59.097 69.896-59.468 70.133-2.822 1.784-4.125 5.219-3.197 8.426.929 3.206 3.867 5.413 7.206 5.413h128.913c4.143 0 7.502-3.357 7.502-7.5s-3.359-7.5-7.502-7.5h-107.316c14.582-13.146 35.278-35.822 50.445-68.829 12.902.092 25.572.139 37.985.139 12.798 0 25.497-.05 37.983-.141 15.167 33.008 35.863 55.685 50.446 68.831h-34.312c-4.143 0-7.502 3.357-7.502 7.5s3.359 7.5 7.502 7.5h55.907c3.339 0 6.276-2.207 7.206-5.413.929-3.207-.374-6.642-3.197-8.426-.379-.24-35.778-23.016-59.473-70.137 101.422-1.027 184.827-4.476 185.803-4.517 3.757-.157 6.817-3.071 7.157-6.814 18.985-208.953.186-403.203-.006-405.14z"/><path d="m141.052 59.008h-64.518c-4.143 0-7.502 3.357-7.502 7.5s3.359 7.5 7.502 7.5h64.518c4.143 0 7.502-3.357 7.502-7.5s-3.359-7.5-7.502-7.5z"/><path d="m76.534 99.008c-4.143 0-7.502 3.357-7.502 7.5s3.359 7.5 7.502 7.5h24.509c4.143 0 7.502-3.357 7.502-7.5s-3.359-7.5-7.502-7.5z"/><path d="m363.446 317.801c0 4.143 3.359 7.5 7.502 7.5h64.518c4.143 0 7.502-3.357 7.502-7.5s-3.359-7.5-7.502-7.5h-64.518c-4.143 0-7.502 3.357-7.502 7.5z"/><path d="m435.466 285.301c4.143 0 7.502-3.357 7.502-7.5s-3.359-7.5-7.502-7.5h-24.509c-4.143 0-7.502 3.357-7.502 7.5s3.359 7.5 7.502 7.5z"/><path d="m318.321 104.207c-17.43 0-34.733 5.754-47.469 15.785-6.179 4.866-11.168 10.617-14.852 17.016-3.684-6.398-8.673-12.149-14.852-17.016-12.737-10.031-30.039-15.785-47.469-15.785-18.312 0-35.182 6.173-47.502 17.382-14.211 12.929-21.722 31.841-21.722 54.689 0 43.693 22.588 82.061 65.321 110.955 31.681 21.421 62.946 30.044 64.261 30.4.643.175 1.303.262 1.963.262s1.321-.087 1.963-.262c2.815-.763 69.368-19.271 106.139-69.84 2.436-3.351 1.695-8.041-1.657-10.477-3.35-2.435-8.042-1.693-10.479 1.656-30.278 41.64-84.966 60.204-95.974 63.603-7.141-2.189-32.555-10.69-57.812-27.768-38.965-26.347-58.722-59.497-58.722-98.53 0-26.327 14.2-57.071 54.22-57.071 14.126 0 28.044 4.581 38.185 12.568 7.589 5.977 16.635 16.679 16.635 33.725 0 4.143 3.359 7.5 7.502 7.5s7.502-3.357 7.502-7.5c0-22.441 19.213-46.293 54.82-46.293 14.569 0 27.853 4.786 37.404 13.476 11.002 10.01 16.817 25.085 16.817 43.596 0 11.254-1.688 22.177-5.017 32.465-1.275 3.941.886 8.17 4.828 9.444 3.943 1.275 8.171-.886 9.447-4.827 3.813-11.782 5.746-24.259 5.746-37.082-.001-49.786-34.769-72.071-69.226-72.071z"/><circle cx="266.081" cy="264.59" r="7.501"/><circle cx="190.155" cy="161.99" r="7.501"/></g></svg>